<?xml version="1.0" encoding="iso-8859-1"?>
<!-- Generator: Adobe Illustrator 18.1.1, SVG Export Plug-In . SVG Version: 6.00 Build 0)  -->
<svg version="1.1" id="Capa_1" xmlns="http://www.w3.org/2000/svg" xmlns:xlink="http://www.w3.org/1999/xlink" x="0px" y="0px"
	 viewBox="0 0 58.034 58.034" style="enable-background:new 0 0 58.034 58.034;" xml:space="preserve">
<g>
	<g>
		<path style="fill:#010002;" d="M42.785,52.85c-2.111-2.98-3.865-6.182-5.359-9.516c-1.035-2.311-2.123-5.133-2.394-7.852
			c0.271-0.887,0.326-1.871,0.181-2.861c-0.707-4.764-1.412-9.525-2.117-14.291c2.475,1.979,3.705,4.884,3.283,8.684
			c-0.334,2.983,4.33,2.952,4.66,0c0.799-7.165-3.355-12.497-9.695-14.911c-0.555-0.539-1.26-0.936-2.011-1.184l-1.869,4.562
			l0.237-3.521l0.279-0.042l-0.092-0.624l-1.644,0.243l0.092,0.625l0.223-0.033l0.646,3.897l-2.243-4.588
			c-1.495,0.999-2.461,5.163-2.521,5.595c-0.577,4.224-2.478,7.653-6.502,9.384c-2.753,1.185-0.376,5.199,2.352,4.023
			c2.492-1.072,4.476-2.804,5.925-4.924c0.375,2.534,0.75,5.066,1.125,7.602c-3.777,7.179-4.375,15.303-1.132,22.994
			c1.438,3.405,7.077,1.91,5.617-1.549c-2.298-5.451-2.445-10.787-0.581-15.893c0.164,0.041,0.33,0.072,0.496,0.099
			c1.225,6.158,4.599,12.198,8.015,17.019C39.908,58.828,44.963,55.923,42.785,52.85z M27.232,16.05l-0.008,0.019l-0.011-0.021
			L27.232,16.05z M28.076,19.725c0.471,0,0.854,0.382,0.854,0.854c0,0.47-0.382,0.853-0.854,0.853c-0.47,0-0.852-0.382-0.852-0.853
			S27.606,19.725,28.076,19.725z M27.367,23.869c0-0.471,0.381-0.852,0.853-0.852c0.471,0,0.852,0.381,0.852,0.852
			s-0.381,0.852-0.852,0.852S27.367,24.34,27.367,23.869z M28.726,28.113c-0.47,0-0.852-0.381-0.852-0.852
			c0-0.471,0.382-0.853,0.852-0.853c0.472,0.001,0.854,0.382,0.854,0.853C29.58,27.732,29.198,28.113,28.726,28.113z"/>
		<path style="fill:#010002;" d="M30.485,3.733c1.969-0.159,2.218,1.426,2.218,1.426c0-2.85-2.309-5.159-5.158-5.159
			s-5.16,2.31-5.16,5.159c0,0,1.227-0.735,2.954-2.462C25.339,3.9,26.357,5.058,30.485,3.733z"/>
	</g>
</g>
<g>
</g>
<g>
</g>
<g>
</g>
<g>
</g>
<g>
</g>
<g>
</g>
<g>
</g>
<g>
</g>
<g>
</g>
<g>
</g>
<g>
</g>
<g>
</g>
<g>
</g>
<g>
</g>
<g>
</g>
</svg>
